
<svg xmlns="http://www.w3.org/2000/svg" viewBox="0 0 512 512">
  <defs>
    <linearGradient id="gold" x1="0" y1="0" x2="1" y2="1">
      <stop offset="0%" stop-color="#fff3a0"></stop>
      <stop offset="48%" stop-color="#ffd000"></stop>
      <stop offset="100%" stop-color="#e89a00"></stop>
    </linearGradient>
    <linearGradient id="wing" x1="0" y1="0" x2="1" y2="0">
      <stop stop-color="#f5f5f5"></stop>
      <stop offset="100%" stop-color="#aeb4c0"></stop>
    </linearGradient>
  </defs>

  <rect width="512" height="512" rx="40" fill="#050505"></rect>
  <circle cx="256" cy="256" r="224" fill="none" stroke="#8a19ff" stroke-width="5"></circle>
  <path d="M70 180 A205 205 0 0 1 205 57" fill="none" stroke="#b6ff00" stroke-width="5"></path>
  <path d="M307 455 A205 205 0 0 0 442 330" fill="none" stroke="#b6ff00" stroke-width="5"></path>

  <!-- Estrellas -->
  <g fill="#fff">
    <path d="M256 91 l7 16 17 2 -13 11 4 17 -15 -9 -15 9 4 -17 -13 -11 17 -2z"></path>
    <path d="M193 120 l4 9 10 1 -8 7 2 10 -8 -5 -8 5 2 -10 -8 -7 10 -1z"></path>
    <path d="M319 120 l4 9 10 1 -8 7 2 10 -8 -5 -8 5 2 -10 -8 -7 10 -1z"></path>
    <path d="M139 151 l3 7 8 1 -6 5 2 8 -7 -4 -7 4 2 -8 -6 -5 8 -1z"></path>
    <path d="M373 151 l3 7 8 1 -6 5 2 8 -7 -4 -7 4 2 -8 -6 -5 8 -1z"></path>
  </g>

  <!-- Alas geométricas -->
  <g fill="url(#wing)" stroke="#050505" stroke-width="3">
    <path d="M65 203 H190 L164 222 H89 Z"></path>
    <path d="M78 227 H178 L157 244 H100 Z"></path>
    <path d="M96 249 H164 L146 265 H113 Z"></path>
    <path d="M447 203 H322 L348 222 H423 Z"></path>
    <path d="M434 227 H334 L355 244 H412 Z"></path>
    <path d="M416 249 H348 L366 265 H399 Z"></path>
  </g>

  <!-- Nombre -->
  <text x="256" y="245" text-anchor="middle" font-family="Arial, sans-serif" font-size="63" font-weight="900" letter-spacing="-3" fill="url(#gold)" stroke="#080808" stroke-width="2" paint-order="stroke">KEOPS</text>

  <!-- Detalle violeta y verde -->
  <path d="M239 252 L256 224 L273 252 Z" fill="#901bff"></path>
  <path d="M153 281 H359" stroke="#b6ff00" stroke-width="5"></path>
  <path d="M190 294 H322" stroke="#d5d5d5" stroke-width="3"></path>
  <path d="M256 286 l15 20 -15 -7 -15 7z" fill="#b6ff00"></path>
</svg>
